<svg width="375" height="812" viewBox="0 0 375 812" fill="none" xmlns="http://www.w3.org/2000/svg">
<g clip-path="url(#clip0_111_100)">
<rect width="375" height="812" rx="24" fill="white"/>
<rect x="-10" y="-21" width="424" height="866" fill="#7265E2"/>
<g opacity="0.5" filter="url(#filter0_f_111_100)">
<path d="M305.423 738.996C231.701 761.903 193.714 723.946 145.389 834.799C97.0635 945.652 -160.832 734.344 -14.6454 738.996C131.541 743.648 216.923 715.985 145.389 643.192C73.8549 570.4 379.145 716.089 305.423 738.996Z" fill="#D9D9D9"/>
</g>
<g opacity="0.5" filter="url(#filter1_f_111_100)">
<path d="M366.423 201.996C292.701 224.903 254.714 186.946 206.389 297.799C158.064 408.652 -99.8316 197.344 46.3546 201.996C192.541 206.648 277.923 178.985 206.389 106.192C134.855 33.3996 440.145 179.089 366.423 201.996Z" fill="#D9D9D9"/>
</g>
</g>
<defs>
<filter id="filter0_f_111_100" x="-166" y="516" width="590" height="458" filterUnits="userSpaceOnUse" color-interpolation-filters="sRGB">
<feFlood flood-opacity="0" result="BackgroundImageFix"/>
<feBlend mode="normal" in="SourceGraphic" in2="BackgroundImageFix" result="shape"/>
<feGaussianBlur stdDeviation="53.5" result="effect1_foregroundBlur_111_100"/>
</filter>
<filter id="filter1_f_111_100" x="-105" y="-21" width="590" height="458" filterUnits="userSpaceOnUse" color-interpolation-filters="sRGB">
<feFlood flood-opacity="0" result="BackgroundImageFix"/>
<feBlend mode="normal" in="SourceGraphic" in2="BackgroundImageFix" result="shape"/>
<feGaussianBlur stdDeviation="53.5" result="effect1_foregroundBlur_111_100"/>
</filter>
<clipPath id="clip0_111_100">
<rect width="375" height="812" rx="24" fill="white"/>
</clipPath>
</defs>
</svg>
