<svg width="375" height="812" viewBox="0 0 375 812" fill="none" xmlns="http://www.w3.org/2000/svg">
<g clip-path="url(#clip0_1_97)">
<rect width="375" height="812" rx="24" fill="white"/>
<rect x="-10" y="-21" width="424" height="866" fill="#7265E2"/>
<g opacity="0.5" filter="url(#filter0_f_1_97)">
<path d="M305.423 738.996C231.701 761.903 193.714 723.946 145.389 834.799C97.0635 945.652 -160.832 734.344 -14.6454 738.996C131.541 743.648 216.923 715.985 145.389 643.192C73.8549 570.4 379.145 716.089 305.423 738.996Z" fill="#D9D9D9"/>
</g>
<g opacity="0.5" filter="url(#filter1_f_1_97)">
<path d="M366.423 201.996C292.701 224.903 254.714 186.946 206.389 297.799C158.064 408.652 -99.8316 197.344 46.3546 201.996C192.541 206.648 277.923 178.985 206.389 106.192C134.855 33.3996 440.145 179.089 366.423 201.996Z" fill="#D9D9D9"/>
</g>
<path d="M187 208L187.008 247.961L202.307 211.045L187.022 247.967L215.284 219.716L187.033 247.978L223.955 232.693L187.039 247.992L227 248L187.039 248.008L223.955 263.307L187.033 248.022L215.284 276.284L187.022 248.033L202.307 284.955L187.008 248.039L187 288L186.992 248.039L171.693 284.955L186.978 248.033L158.716 276.284L186.967 248.022L150.045 263.307L186.961 248.008L147 248L186.961 247.992L150.045 232.693L186.967 247.978L158.716 219.716L186.978 247.967L171.693 211.045L186.992 247.961L187 208Z" fill="#C8FEC7" stroke="#C8FEC7" stroke-width="4"/>
<path d="M104.084 375H96.0194V353.182H104.073C106.296 353.182 108.21 353.619 109.816 354.492C111.428 355.359 112.671 356.609 113.544 358.242C114.418 359.869 114.855 361.815 114.855 364.08C114.855 366.353 114.418 368.306 113.544 369.94C112.678 371.573 111.438 372.827 109.826 373.7C108.214 374.567 106.3 375 104.084 375ZM101.293 370.504H103.882C105.103 370.504 106.137 370.298 106.982 369.886C107.834 369.467 108.477 368.789 108.91 367.852C109.35 366.907 109.571 365.65 109.571 364.08C109.571 362.511 109.35 361.261 108.91 360.33C108.47 359.393 107.82 358.718 106.96 358.306C106.108 357.887 105.057 357.678 103.807 357.678H101.293V370.504ZM121.796 375.277C120.752 375.277 119.826 375.103 119.016 374.755C118.213 374.4 117.578 373.867 117.109 373.157C116.647 372.44 116.416 371.541 116.416 370.462C116.416 369.553 116.576 368.786 116.896 368.161C117.215 367.536 117.656 367.028 118.217 366.637C118.778 366.246 119.424 365.952 120.156 365.753C120.887 365.547 121.669 365.408 122.5 365.337C123.43 365.252 124.179 365.163 124.747 365.071C125.316 364.972 125.728 364.833 125.983 364.656C126.246 364.471 126.377 364.212 126.377 363.878V363.825C126.377 363.278 126.189 362.855 125.813 362.557C125.436 362.259 124.929 362.109 124.289 362.109C123.6 362.109 123.046 362.259 122.627 362.557C122.208 362.855 121.942 363.267 121.828 363.793L117.024 363.622C117.166 362.628 117.532 361.74 118.121 360.959C118.718 360.17 119.534 359.553 120.571 359.105C121.615 358.651 122.869 358.423 124.332 358.423C125.376 358.423 126.338 358.548 127.219 358.796C128.1 359.038 128.867 359.393 129.52 359.862C130.174 360.323 130.678 360.891 131.033 361.566C131.395 362.241 131.576 363.011 131.576 363.878V375H126.676V372.72H126.548C126.257 373.274 125.884 373.743 125.429 374.126C124.982 374.51 124.453 374.798 123.842 374.989C123.238 375.181 122.556 375.277 121.796 375.277ZM123.405 371.868C123.966 371.868 124.47 371.754 124.918 371.527C125.372 371.3 125.735 370.987 126.005 370.589C126.274 370.185 126.409 369.716 126.409 369.183V367.628C126.26 367.706 126.079 367.777 125.866 367.841C125.66 367.905 125.433 367.965 125.184 368.022C124.936 368.079 124.68 368.129 124.417 368.171C124.154 368.214 123.902 368.253 123.661 368.288C123.171 368.366 122.752 368.487 122.404 368.651C122.063 368.814 121.8 369.027 121.615 369.29C121.438 369.545 121.349 369.851 121.349 370.206C121.349 370.746 121.541 371.158 121.924 371.442C122.315 371.726 122.809 371.868 123.405 371.868ZM134.012 375V358.636H139.221V375H134.012ZM136.622 356.729C135.89 356.729 135.262 356.488 134.736 356.005C134.21 355.515 133.948 354.925 133.948 354.237C133.948 353.555 134.21 352.972 134.736 352.489C135.262 351.999 135.89 351.754 136.622 351.754C137.36 351.754 137.989 351.999 138.507 352.489C139.033 352.972 139.296 353.555 139.296 354.237C139.296 354.925 139.033 355.515 138.507 356.005C137.989 356.488 137.36 356.729 136.622 356.729ZM146.997 353.182V375H141.787V353.182H146.997ZM152.748 381.136C152.123 381.136 151.533 381.087 150.979 380.987C150.425 380.895 149.949 380.771 149.552 380.614L150.702 376.832C151.214 377.003 151.675 377.102 152.087 377.131C152.506 377.159 152.865 377.092 153.163 376.928C153.469 376.772 153.703 376.491 153.866 376.087L154.069 375.597L148.252 358.636H153.707L156.722 370.312H156.892L159.949 358.636H165.436L159.268 376.566C158.969 377.461 158.547 378.249 158 378.931C157.46 379.62 156.761 380.16 155.901 380.55C155.049 380.941 153.998 381.136 152.748 381.136ZM172.379 375V353.182H181.392C183.025 353.182 184.435 353.501 185.621 354.141C186.814 354.773 187.734 355.657 188.38 356.793C189.027 357.923 189.35 359.237 189.35 360.735C189.35 362.241 189.019 363.558 188.359 364.688C187.706 365.81 186.772 366.68 185.557 367.298C184.343 367.915 182.901 368.224 181.232 368.224H175.671V364.07H180.252C181.047 364.07 181.711 363.931 182.244 363.654C182.784 363.377 183.192 362.99 183.469 362.493C183.746 361.989 183.884 361.403 183.884 360.735C183.884 360.06 183.746 359.478 183.469 358.988C183.192 358.491 182.784 358.107 182.244 357.837C181.704 357.567 181.04 357.433 180.252 357.433H177.652V375H172.379ZM196.409 353.182V375H191.199V353.182H196.409ZM203.587 375.277C202.543 375.277 201.617 375.103 200.807 374.755C200.004 374.4 199.369 373.867 198.9 373.157C198.438 372.44 198.207 371.541 198.207 370.462C198.207 369.553 198.367 368.786 198.687 368.161C199.006 367.536 199.447 367.028 200.008 366.637C200.569 366.246 201.215 365.952 201.947 365.753C202.678 365.547 203.46 365.408 204.291 365.337C205.221 365.252 205.97 365.163 206.538 365.071C207.107 364.972 207.519 364.833 207.774 364.656C208.037 364.471 208.168 364.212 208.168 363.878V363.825C208.168 363.278 207.98 362.855 207.604 362.557C207.227 362.259 206.72 362.109 206.08 362.109C205.391 362.109 204.837 362.259 204.418 362.557C203.999 362.855 203.733 363.267 203.619 363.793L198.815 363.622C198.957 362.628 199.323 361.74 199.912 360.959C200.509 360.17 201.325 359.553 202.362 359.105C203.406 358.651 204.66 358.423 206.123 358.423C207.167 358.423 208.129 358.548 209.01 358.796C209.891 359.038 210.658 359.393 211.311 359.862C211.965 360.323 212.469 360.891 212.824 361.566C213.186 362.241 213.367 363.011 213.367 363.878V375H208.467V372.72H208.339C208.048 373.274 207.675 373.743 207.22 374.126C206.773 374.51 206.244 374.798 205.633 374.989C205.029 375.181 204.347 375.277 203.587 375.277ZM205.196 371.868C205.757 371.868 206.261 371.754 206.709 371.527C207.163 371.3 207.526 370.987 207.796 370.589C208.065 370.185 208.2 369.716 208.2 369.183V367.628C208.051 367.706 207.87 367.777 207.657 367.841C207.451 367.905 207.224 367.965 206.975 368.022C206.727 368.079 206.471 368.129 206.208 368.171C205.945 368.214 205.693 368.253 205.452 368.288C204.962 368.366 204.543 368.487 204.195 368.651C203.854 368.814 203.591 369.027 203.406 369.29C203.229 369.545 203.14 369.851 203.14 370.206C203.14 370.746 203.332 371.158 203.715 371.442C204.106 371.726 204.6 371.868 205.196 371.868ZM221.012 365.668V375H215.803V358.636H220.756V361.641H220.938C221.3 360.639 221.918 359.854 222.791 359.286C223.665 358.711 224.705 358.423 225.913 358.423C227.063 358.423 228.061 358.683 228.906 359.201C229.759 359.712 230.419 360.43 230.888 361.353C231.364 362.269 231.598 363.342 231.591 364.57V375H226.381V365.593C226.389 364.684 226.158 363.974 225.689 363.462C225.227 362.951 224.585 362.695 223.761 362.695C223.214 362.695 222.731 362.816 222.312 363.058C221.9 363.292 221.58 363.629 221.353 364.07C221.133 364.51 221.019 365.043 221.012 365.668ZM239.276 365.668V375H234.066V358.636H239.02V361.641H239.201C239.563 360.639 240.181 359.854 241.055 359.286C241.929 358.711 242.969 358.423 244.176 358.423C245.327 358.423 246.325 358.683 247.17 359.201C248.022 359.712 248.683 360.43 249.152 361.353C249.627 362.269 249.862 363.342 249.855 364.57V375H244.645V365.593C244.652 364.684 244.421 363.974 243.953 363.462C243.491 362.951 242.848 362.695 242.024 362.695C241.478 362.695 240.995 362.816 240.576 363.058C240.164 363.292 239.844 363.629 239.617 364.07C239.397 364.51 239.283 365.043 239.276 365.668ZM259.979 375.309C258.267 375.309 256.79 374.972 255.547 374.297C254.312 373.615 253.36 372.646 252.692 371.388C252.032 370.124 251.701 368.622 251.701 366.882C251.701 365.192 252.035 363.714 252.703 362.45C253.37 361.179 254.312 360.192 255.526 359.489C256.741 358.778 258.172 358.423 259.819 358.423C260.984 358.423 262.049 358.604 263.015 358.967C263.981 359.329 264.816 359.865 265.519 360.575C266.222 361.286 266.769 362.163 267.16 363.207C267.55 364.244 267.745 365.433 267.745 366.776V368.075H253.523V365.05H262.898C262.891 364.496 262.76 364.002 262.504 363.569C262.248 363.136 261.897 362.798 261.449 362.557C261.009 362.308 260.501 362.184 259.926 362.184C259.343 362.184 258.821 362.315 258.36 362.578C257.898 362.834 257.532 363.185 257.263 363.633C256.993 364.073 256.851 364.574 256.836 365.135V368.214C256.836 368.881 256.968 369.467 257.231 369.972C257.493 370.469 257.866 370.856 258.349 371.133C258.832 371.41 259.407 371.548 260.075 371.548C260.537 371.548 260.956 371.484 261.332 371.357C261.709 371.229 262.032 371.04 262.302 370.792C262.571 370.543 262.774 370.238 262.909 369.876L267.692 370.014C267.493 371.087 267.057 372.021 266.382 372.816C265.714 373.604 264.837 374.219 263.75 374.659C262.664 375.092 261.407 375.309 259.979 375.309ZM269.656 375V358.636H274.717V361.619H274.887C275.185 360.54 275.672 359.737 276.347 359.212C277.021 358.679 277.806 358.413 278.701 358.413C278.942 358.413 279.191 358.43 279.447 358.466C279.702 358.494 279.94 358.54 280.16 358.604V363.132C279.912 363.047 279.585 362.979 279.18 362.93C278.783 362.88 278.427 362.855 278.115 362.855C277.497 362.855 276.94 362.994 276.442 363.271C275.952 363.54 275.565 363.92 275.281 364.411C275.004 364.893 274.866 365.462 274.866 366.115V375H269.656Z" fill="white"/>
</g>
<defs>
<filter id="filter0_f_1_97" x="-166" y="516" width="590" height="458" filterUnits="userSpaceOnUse" color-interpolation-filters="sRGB">
<feFlood flood-opacity="0" result="BackgroundImageFix"/>
<feBlend mode="normal" in="SourceGraphic" in2="BackgroundImageFix" result="shape"/>
<feGaussianBlur stdDeviation="53.5" result="effect1_foregroundBlur_1_97"/>
</filter>
<filter id="filter1_f_1_97" x="-105" y="-21" width="590" height="458" filterUnits="userSpaceOnUse" color-interpolation-filters="sRGB">
<feFlood flood-opacity="0" result="BackgroundImageFix"/>
<feBlend mode="normal" in="SourceGraphic" in2="BackgroundImageFix" result="shape"/>
<feGaussianBlur stdDeviation="53.5" result="effect1_foregroundBlur_1_97"/>
</filter>
<clipPath id="clip0_1_97">
<rect width="375" height="812" rx="24" fill="white"/>
</clipPath>
</defs>
</svg>
